<?xml version="1.0" encoding="utf-8"?>
<!-- Generator: Adobe Illustrator 17.0.0, SVG Export Plug-In . SVG Version: 6.00 Build 0)  -->
<!DOCTYPE svg PUBLIC "-//W3C//DTD SVG 1.1//EN" "http://www.w3.org/Graphics/SVG/1.1/DTD/svg11.dtd">
<svg version="1.1" id="圖層_1" xmlns="http://www.w3.org/2000/svg" xmlns:xlink="http://www.w3.org/1999/xlink" x="0px" y="0px"
	 width="841.89px" height="452px" viewBox="0 0 841.89 452" enable-background="new 0 0 841.89 452" xml:space="preserve">
<g>
	
		<image overflow="visible" opacity="0.75" width="3917" height="655" xlink:href="8AA5BAEBEC803DD6.png"  transform="matrix(0.24 0 0 0.24 -15 309.9893)">
	</image>
	<g>
		<path fill="#0A0F33" d="M910,452H0v-48c0,0,212.882,15.902,380.772-4.123C544.772,380.317,717.321,325.729,788,325
			c100.569-1.037,122,74,122,74V452z"/>
	</g>
</g>
<g>
	
		<image overflow="visible" opacity="0.75" width="3633" height="351" xlink:href="8AA5BAEBEC803DD9.png"  transform="matrix(0.24 0 0 0.24 -15 349.7937)">
	</image>
	<g>
		<path fill="#0C0F33" d="M841.89,419H0v-38c0,0,57-39,284,4c265.215,50.239,557.89,20,557.89,20V419z"/>
	</g>
</g>
</svg>
